<svg xmlns="http://www.w3.org/2000/svg" width="170" height="20" viewBox="0 0 170 20" fill="none"><script xmlns=""/>
<g clip-path="url(#clip0)">
<path fill-rule="evenodd" clip-rule="evenodd" d="M170 0.465518L166.314 0.465518L161.632 12.6357L156.896 0.450598L153.567 0.450598L149.208 11.7083L144.816 0.465518L140.147 0.465518L147.742 19.5054H149.857L154.795 6.61541L159.863 19.5054H162.552L170 0.465518ZM140.359 9.77623C140.359 8.82729 140.233 7.92709 139.98 7.07596C139.727 6.22483 139.37 5.44001 138.909 4.72184C138.448 4.00366 137.889 3.35645 137.233 2.77985C136.577 2.20359 135.85 1.71387 135.052 1.31002C134.254 0.906834 133.389 0.596488 132.458 0.378981C131.527 0.161805 130.552 0.0533829 129.532 0.0533829C128.512 0.0533829 127.537 0.161805 126.606 0.378981C125.675 0.596488 124.811 0.904514 124.012 1.30339C123.214 1.70259 122.487 2.19265 121.831 2.77322C121.175 3.35413 120.616 4.00366 120.155 4.72184C119.694 5.44001 119.337 6.22715 119.084 7.08259C118.832 7.93836 118.705 8.84486 118.705 9.80276C118.705 10.7782 118.832 11.7026 119.084 12.5756C119.337 13.4493 119.694 14.2583 120.155 15.0034C120.616 15.7481 121.175 16.4178 121.831 17.0117C122.487 17.6058 123.214 18.1115 124.012 18.5279C124.811 18.945 125.675 19.266 126.606 19.4921C127.537 19.7186 128.512 19.8313 129.532 19.8313C130.552 19.8313 131.527 19.7229 132.458 19.5057C133.389 19.2885 134.254 18.9735 135.052 18.5614C135.85 18.1489 136.577 17.6479 137.233 17.0584C137.889 16.4686 138.448 15.8015 138.909 15.0564C139.37 14.3117 139.727 13.4961 139.98 12.6091C140.233 11.7225 140.359 10.7782 140.359 9.77623ZM135.198 9.83724C135.198 10.7968 135.076 11.6827 134.833 12.4951C134.589 13.3077 134.227 14.0097 133.749 14.6015C133.27 15.1934 132.678 15.6556 131.973 15.9881C131.268 16.321 130.454 16.4871 129.532 16.4871C128.601 16.4871 127.781 16.321 127.071 15.9881C126.362 15.6556 125.77 15.1934 125.296 14.6015C124.821 14.0097 124.462 13.3077 124.219 12.4951C123.975 11.6827 123.853 10.7968 123.853 9.83724C123.853 8.89194 123.975 8.02523 124.219 7.23743C124.462 6.4493 124.821 5.77191 125.296 5.2046C125.77 4.63729 126.362 4.19597 127.071 3.88098C127.781 3.56566 128.601 3.40817 129.532 3.40817C130.454 3.40817 131.268 3.56566 131.973 3.88098C132.678 4.19597 133.27 4.63729 133.749 5.2046C134.227 5.77191 134.589 6.4493 134.833 7.23743C135.076 8.02523 135.198 8.89194 135.198 9.83724ZM103.939 19.5054L118.36 19.5054V16.1519L108.572 16.1519V0.465519L103.93 0.465519V19.4059H103.939V19.5054ZM97.2434 19.4059L101.992 19.4059L93.1201 0.0533829L90.5895 0.0533829L81.3451 19.4059H85.0332L87.1011 15.1038L95.2749 15.1038L97.2434 19.4059ZM93.7643 11.7504L88.7225 11.7504L91.2845 6.34452L93.7643 11.7504ZM78.2927 18.3552C78.8955 18.0803 79.2931 17.7832 79.9048 17.4639V9.57961H79.9042V9.55475H79.8959V9.10945L72.2058 9.10945V12.2408H75.6919V15.5286C75.2576 15.8393 74.7788 16.072 74.2556 16.2269C73.732 16.382 73.1783 16.4596 72.5928 16.4596C71.6087 16.4596 70.3962 16.3459 69.5314 16.0133C68.667 15.6808 67.9154 15.1934 67.2771 14.5501C66.6385 13.9075 66.1332 13.1138 65.7605 12.1695C65.5457 11.635 65.3779 10.5869 65.3779 9.74871C65.3779 9.03153 65.5036 8.44897 65.6939 7.86343C66.0443 6.89691 66.5251 6.07894 67.1372 5.4095C67.7489 4.74007 68.4761 4.23012 69.3186 3.87999C70.1608 3.52952 71.3623 3.30207 72.3468 3.30207C72.9937 3.30207 73.5991 3.40419 74.1621 3.60777C74.7251 3.81202 75.2529 4.09352 75.745 4.4526C76.1571 4.75333 76.3716 4.93139 76.8285 5.32429L78.8375 2.88728C78.236 2.33555 77.558 1.84517 76.8027 1.41645C76.0444 0.98641 75.2221 0.642907 74.3352 0.385612C73.4486 0.128648 72.5218 0 71.5556 0C70.4648 0 69.4316 0.111075 68.4565 0.332561C67.4807 0.554379 66.5788 0.873346 65.7496 1.29012C64.9203 1.70723 64.3892 2.21453 63.7194 2.81301C63.05 3.41182 62.4827 4.08788 62.0171 4.84153C61.5516 5.59518 61.1925 6.41979 60.9396 7.31535C60.6869 8.21124 60.5606 9.15985 60.5606 10.1618C60.5606 11.5982 60.8398 12.9016 61.3988 14.0723C61.9571 15.2428 62.7353 16.2448 63.733 17.0783C64.7304 17.9119 65.6985 18.5568 67.0732 19.0133C68.4475 19.4699 69.9505 19.6984 71.5822 19.6984C72.6017 19.6984 73.5172 19.643 74.3289 19.5322C75.1402 19.4212 75.8915 19.266 76.5832 19.0667C77.2748 18.8671 77.6896 18.63 78.2927 18.3552ZM57.5427 19.5054H57.9949V0.473808L57.5427 0.473808V0.465519L54.42 0.465519V12.516L43.6199 0.465519L40.5157 0.41081V0.427389L40.1878 0.4191V19.4507L43.6792 19.5054V6.49373L55.3245 19.5054H55.7731H57.5427ZM36.1779 15.4089C36.5104 14.5355 36.6769 13.6111 36.6769 12.6357V0.465519L33.3002 0.465519V11.1071C33.3002 11.8435 33.1871 12.5329 32.961 13.1754C32.7349 13.8187 32.4109 14.3794 31.9898 14.8581C31.5688 15.3369 31.0588 15.7159 30.4603 15.9954C29.8619 16.2746 29.3539 16.3615 28.6092 16.3615C27.8642 16.3615 27.4769 16.2746 26.8741 15.9954C26.271 15.7159 25.7591 15.3369 25.338 14.8581C24.9165 14.3794 24.5929 13.8187 24.3671 13.1754C24.141 12.5329 24.0279 11.8435 24.0279 11.1071L24.0279 0.465519L19.3724 0.465519L19.3724 12.5959C19.3724 13.58 19.5564 14.511 19.9245 15.389C20.2925 16.267 20.8356 17.0362 21.5538 17.6967C22.272 18.3575 23.1609 18.8784 24.2206 19.2594C25.2803 19.6407 26.5061 19.8313 27.8983 19.8313C29.45 19.8313 30.7823 19.6407 31.8953 19.2594C33.0078 18.8784 33.9169 18.3595 34.6218 17.7033C35.3267 17.0471 35.8456 16.2826 36.1779 15.4089ZM15.9676 16.1032C16.3088 15.445 16.4795 14.7345 16.4795 13.9719C16.4795 13.4182 16.3843 12.8959 16.1937 12.4059C16.003 11.9155 15.7368 11.4705 15.3956 11.071C15.0541 10.6718 14.6506 10.32 14.1854 10.0156C13.7195 9.71158 13.2076 9.46887 12.6489 9.28717C13.1897 8.9692 13.6466 8.65156 14.019 8.33359C14.3916 8.01595 14.6884 7.68471 14.9102 7.33955C15.1317 6.99472 15.2912 6.62934 15.389 6.24339C15.4865 5.85745 15.5352 5.43305 15.5352 4.96985C15.5352 4.22548 15.3535 3.54909 14.9898 2.94066C14.6264 2.33257 14.1188 1.81035 13.4669 1.37467C12.8154 0.938665 12.0349 0.603119 11.126 0.366713C10.2169 0.130969 9.21754 0.0125999 8.12669 0.0125999L0 0.0125999L0 19.4059L9.32364 19.4059C10.3966 19.4059 11.3741 19.265 12.2567 18.9835C13.139 18.7023 13.8926 18.3164 14.5176 17.826C15.143 17.3356 15.6261 16.7617 15.9676 16.1032ZM10.8266 5.66746C10.8266 6.01494 10.7557 6.33325 10.6138 6.62304C10.4719 6.91249 10.2679 7.16283 10.002 7.37403C9.73611 7.58524 9.41018 7.75069 9.02457 7.86973C8.63863 7.98909 8.20195 8.04877 7.71455 8.04877H4.64193L4.64193 3.10213L6.38431 3.10213C7.15586 3.10213 7.82099 3.16513 8.37934 3.29113C8.93803 3.41745 9.39891 3.59252 9.76264 3.81732C10.126 4.04246 10.3946 4.31301 10.5673 4.62999C10.7401 4.94697 10.8266 5.29279 10.8266 5.66746ZM11.5849 13.8167C11.5849 14.1851 11.4984 14.5236 11.3256 14.8326C11.1526 15.142 10.8866 15.4076 10.5276 15.6297C10.1685 15.8522 9.7139 16.0276 9.16416 16.1559C8.61409 16.2845 7.96256 16.3489 7.20891 16.3489L4.64193 16.3489L4.64193 10.8992H7.04943C7.88266 10.8992 8.58989 10.9738 9.17079 11.1231C9.75136 11.2726 10.2192 11.4775 10.574 11.7378C10.9284 11.9984 11.1857 12.3057 11.3455 12.6602C11.505 13.0143 11.5849 13.3999 11.5849 13.8167Z" fill="#24201F"/>
</g>
<defs>
<clipPath id="clip0">
<path d="M0 0H170V20H0V0Z" fill="white"/>
</clipPath>
</defs>
<script xmlns=""/></svg>